<?xml version="1.0" standalone="no"?><!DOCTYPE svg PUBLIC "-//W3C//DTD SVG 1.1//EN" "http://www.w3.org/Graphics/SVG/1.1/DTD/svg11.dtd"><svg t="1727751498315" class="icon" viewBox="0 0 1024 1024" version="1.1" xmlns="http://www.w3.org/2000/svg" p-id="1238" xmlns:xlink="http://www.w3.org/1999/xlink" width="200" height="200"><path d="M512 938.666667c-235.946667 0-426.666667-190.72-426.666667-426.666667s190.72-426.666667 426.666667-426.666667 426.666667 190.72 426.666667 426.666667-190.72 426.666667-426.666667 426.666667zM332.8 309.418667c-37.632 4.010667-59.392 6.656-61.013333 7.424-1.365333 0.682667-28.245333 22.272-59.733334 47.957333-35.84 29.269333-57.856 47.872-59.050666 49.834667-1.450667 2.218667-1.962667 4.352-1.962667 7.765333 0 2.56 0.512 5.632 1.109333 6.826667 0.597333 1.194667 79.616 86.613333 175.616 189.866666 96 103.253333 175.616 188.245333 176.810667 188.757334 1.28 0.597333 3.925333 1.365333 5.973333 1.621333 2.56 0.341333 4.693333 0.085333 7.424-1.024 3.242667-1.365333 29.098667-28.842667 178.090667-189.184 95.914667-103.082667 174.933333-188.672 175.616-190.037333 0.682667-1.450667 1.28-4.608 1.28-7.082667 0-3.072-0.597333-5.376-1.962667-7.509333-1.194667-1.962667-23.296-20.565333-59.050666-49.834667-31.488-25.685333-58.197333-47.189333-59.562667-47.872-1.450667-0.768-23.893333-3.498667-62.890667-7.594667l-60.586666-6.4-237.653334 0.170667zM307.029333 351.573333c-0.085333-0.256 13.824 1.621333 30.890667 4.181334 17.152 2.56 31.232 4.778667 31.402667 4.949333 0.085333 0.170667-6.485333 12.202667-14.506667 26.794667-8.106667 14.592-14.933333 26.453333-15.189333 26.453333-0.256 0-7.594667-13.909333-16.384-30.976-8.789333-16.981333-16.128-31.146667-16.213334-31.402667z m378.538667 4.181334c16.810667-2.474667 30.72-4.522667 30.890667-4.352 0.170667 0.170667-6.826667 14.250667-15.701334 31.402666-8.789333 17.152-16.128 31.146667-16.384 31.146667-0.256 0-7.082667-11.861333-15.189333-26.453333-8.021333-14.592-14.592-26.624-14.506667-26.794667 0.170667-0.170667 13.994667-2.389333 30.890667-4.949333z m-446.890667 28.16c18.688-15.36 34.304-27.818667 34.645334-27.733334 0.341333 0.085333 8.96 16.213333 19.029333 35.754667 9.984 19.626667 18.176 35.84 18.090667 36.010667-0.170667 0.170667-23.722667-3.157333-52.394667-7.509334-28.757333-4.266667-52.48-7.936-52.736-8.192-0.341333-0.256 14.762667-12.970667 33.365333-28.330666zM748.373333 359.509333c1.024-2.048 2.133333-3.584 2.474667-3.413333 0.341333 0.085333 15.872 12.714667 34.474667 27.989333 18.688 15.274667 33.706667 27.904 33.365333 28.16-0.256 0.256-23.978667 3.925333-52.736 8.192-28.672 4.352-52.224 7.68-52.309333 7.509334-0.170667-0.170667 7.168-14.848 16.298666-32.597334 9.045333-17.664 17.408-33.877333 18.432-35.84z m-344.661333 4.949334l216.917333 0.426666 19.541334 35.413334c10.752 19.456 21.162667 38.4 26.709333 48.64l-77.226667 154.453333c-42.496 84.906667-77.397333 154.453333-77.653333 154.453333-0.256 0-35.072-69.290667-77.397333-154.026666-42.410667-84.736-77.056-154.453333-77.056-154.965334 0-0.597333 9.472-18.090667 20.992-39.082666 11.52-20.906667 21.930667-39.68 23.04-41.728z m-194.986667 80.298666l2.133334 0.426667c1.109333 0.256 27.818667 4.266667 59.306666 8.96 31.402667 4.693333 57.429333 8.448 57.770667 8.448 0.341333 0 27.562667 53.845333 60.416 119.722667 53.845333 107.605333 59.477333 119.296 56.064 115.797333-2.133333-2.048-55.04-58.88-117.589333-126.293333-62.549333-67.328-114.688-123.477333-115.882667-124.757334z m555.946667 7.68c27.392-4.181333 50.090667-7.594667 50.261333-7.68 0.170667 0-0.597333 1.024-1.792 2.304-1.194667 1.28-53.333333 57.429333-115.882666 124.757334-62.549333 67.413333-115.456 124.245333-117.504 126.293333-3.413333 3.498667 2.218667-8.192 115.541333-235.093333l9.728-1.536c5.290667-0.853333 32.170667-4.949333 59.648-9.045334zM512.682667 630.016q17.237333 0 32.256-7.082667 15.018667-7.082667 25.941333-22.698666 10.922667-15.530667 14.165333-39.253334l-29.781333-4.949333q-1.365333 19.114667-14.165333 29.781333-12.544 10.325333-29.525334 10.325334-12.288 0-23.466666-6.826667-11.178667-7.082667-15.018667-18.261333-1.877333-5.717333-1.877333-12.288 0-11.434667 6.229333-20.736 6.570667-9.557333 19.114667-15.018667 12.629333-5.461333 30.037333-5.461333 3.072 0 10.154667 0.512V465.92h88.490666v-34.133333H536.746667v-33.024h-34.389334V431.786667H409.514667v34.133333h92.842666v21.333333q-20.224 2.133333-34.986666 12.288-14.506667 10.069333-22.101334 25.088-7.424 15.018667-7.424 32.256 0 17.152 7.936 34.389334 5.717333 12.288 17.493334 21.845333 11.776 9.557333 27.050666 13.909333 11.178667 2.986667 22.357334 2.986667z" fill="#F7AF34" p-id="1239"></path></svg>